Monsters, Inc. is the largest scare factory in the monster world and the top Kid-Scarer is James P. Sullivan (John Goodman), a huge, intimidating monster with blue fur, large purple spots and horns, known as "Sulley" to his friends. His Scare Assistant, best friend and roommate is Mike Wazowski (Billy Crystal), a lime green, opinionated, feisty monster. And visiting from the human world is Boo, a tiny girl who turns the monster world upside down and teaches Sulley and Mike that laughter is more powerful than a scream.

Format : MPEG-4
Format profile : Base Media / Version 2
Codec ID : mp42
File size : 800 MiB
Duration : 1h 28mn
Overall bit rate : 1 264 Kbps
Encoded date : UTC 2009-08-11 04:21:50
Tagged date : UTC 2009-08-11 08:37:07
Writing application : HandBrake 0.9.3 2008112300

Video
ID : 1
Format : AVC
Format/Info : Advanced Video Codec
Format profile : Main@L4.0
Format settings, CABAC : Yes
Format settings, ReFrames : 3 frames
Codec ID : avc1
Codec ID/Info : Advanced Video Coding
Duration : 1h 28mn
Bit rate mode : Variable
Bit rate : 1 101 Kbps
Width : 702 pixels
Height : 576 pixels
Display aspect ratio : 1.300
Frame rate mode : Variable
Frame rate : 25.000 fps
Minimum frame rate : 12.500 fps
Maximum frame rate : 25.505 fps
Resolution : 24 bits
Colorimetry : 4:2:0
Scan type : Progressive
Bits/(Pixel*Frame) : 0.109
Stream size : 696 MiB (87%)
Writing library : x264 core 65


Audio
ID : 2
Format : AAC
Format/Info : Advanced Audio Codec
Format version : Version 4
Format profile : LC
Format settings, SBR : No
Codec ID : 40
Duration : 1h 28mn
Bit rate mode : Variable
Bit rate : 160 Kbps
Maximum bit rate : 248 Kbps
Channel(s) : 2 channels
Channel positions : L R
Sampling rate : 48.0 KHz
Resolution : 16 bits
Stream size : 101 MiB (13%)
Language : English
Encoded date : UTC 2009-08-11 04:21:50
Tagged date : UTC 2009-08-11 08:37:06